<svg width="200" height="42" viewBox="0 0 200 42" fill="none" xmlns="http://www.w3.org/2000/svg">
<path d="M58.009 32.0947C61.4216 32.0947 64.4036 30.7806 65.7621 26.7516H67.6838V27.1896C66.5043 28.9417 65.8482 30.7806 65.8482 31.7004H69.2609V1.04382H65.8482V8.27013C65.8482 10.3283 66.5507 12.4747 67.6838 14.5329V14.9709H65.7621C64.4036 10.7226 61.4216 9.40854 58.009 9.40854C52.6215 9.40854 48.374 13.7443 48.374 20.7519C48.374 27.7589 52.6215 32.0947 58.009 32.0947ZM51.8728 20.7519C51.8728 15.6276 54.5897 12.4309 58.7976 12.4309C62.959 12.4309 65.5832 15.6276 65.5832 20.7519C65.5832 25.8756 62.959 29.0729 58.7976 29.0729C54.5897 29.0729 51.8728 25.8756 51.8728 20.7519Z" fill="#820AD1"/>
<path d="M73.6411 31.7004H77.0603V9.80285H73.6411V31.7004ZM73.5549 5.9488H77.1465V1.04382H73.5549V5.9488Z" fill="#820AD1"/>
<path d="M87.6165 40.4594H93.7461C99.9221 40.4594 102.984 38.0513 102.984 33.2338C102.984 29.336 100.313 26.8828 95.5419 26.8828H85.8605C84.8532 26.8828 84.3761 26.4011 84.3761 25.6569C84.3761 25.044 84.8135 24.4741 85.8605 24.4741H89.5382C95.8004 24.4741 98.0799 20.5326 98.0799 16.9417V15.9781C98.0799 13.8318 99.2595 13.0439 100.492 13.0439H102.593V9.80284H101.055C98.9149 9.80284 97.5962 10.9419 97.5962 12.7808V13.9199H95.8931C95.0184 11.1606 92.4738 9.40854 89.2334 9.40854C84.4623 9.40854 80.9568 12.4309 80.9568 16.5474C80.9568 19.6128 82.355 21.6717 84.8996 22.5471V23.9049H84.0249C82.355 23.9049 80.9568 24.6934 80.9568 26.1387C80.9568 27.5839 82.2291 28.4162 83.8924 28.4162H84.8996V29.6859C81.3942 29.6859 79.2936 31.3505 79.2936 34.5034C79.2936 38.4449 83.0574 40.4594 87.6165 40.4594ZM82.7062 33.8467C82.7062 31.4817 85.0322 29.9489 86.7352 29.9489H95.0184C98.2124 29.9489 99.5709 31.1749 99.5709 33.1894C99.5709 36.9559 96.5491 37.3939 93.7461 37.3939H87.6165C84.7207 37.3939 82.7062 36.2117 82.7062 33.8467ZM84.3761 16.9417C84.3761 14.3136 86.4768 12.4747 89.5382 12.4747C92.6063 12.4747 94.6672 14.1824 94.6672 16.9417C94.6672 19.701 92.6063 21.4086 89.5382 21.4086C86.4304 21.4086 84.3761 19.701 84.3761 16.9417Z" fill="#820AD1"/>
<path d="M104.998 31.7004H108.417V9.80285H104.998V31.7004ZM104.912 5.9488H108.503V1.04382H104.912V5.9488Z" fill="#820AD1"/>
<path d="M119.669 31.7004H124.752V28.6349H120.769C118.139 28.6349 117.748 28.2406 117.748 25.5695V12.7808H124.666V9.80286H117.748V3.6713H114.328V9.80286H109.776V12.7808H114.328V25.3938C114.328 29.2916 116.124 31.7004 119.669 31.7004Z" fill="#820AD1"/>
<path d="M132.107 32.0947C136.885 32.0947 139.158 29.8171 139.602 26.6204H141.57V27.0584C140.609 28.46 139.993 29.6859 139.556 31.7004H143.366V16.7667C143.366 12.0366 140.125 9.40854 134.301 9.40854C129.086 9.40854 125.236 12.2553 125.236 17.1166H128.562C128.562 14.0511 130.928 12.4747 134.301 12.4747C137.495 12.4747 139.774 13.5694 139.774 15.7588C139.774 16.9416 138.151 17.2922 136.925 17.5983L132.896 18.6056C127.641 19.9196 124.838 21.8029 124.838 26.0512C124.838 29.7733 127.469 32.0947 132.107 32.0947ZM128.476 25.7006C128.476 23.555 130.312 22.4159 134.036 21.2774L137.409 20.2264C138.502 19.8759 139.509 19.3066 139.947 18.5618V22.5033C139.947 25.7444 137.362 29.0292 133.075 29.0292C129.397 29.0292 128.476 27.5402 128.476 25.7006Z" fill="#820AD1"/>
<path d="M150.851 1.04382H147.435V31.7004H150.851V1.04382Z" fill="#820AD1"/>
<path d="M156.133 30.863V13.5367H158.116V19.5508C158.831 19.0734 159.524 18.7235 160.192 18.5007C160.86 18.2779 161.535 18.1667 162.218 18.1667C163.605 18.1667 164.663 18.7076 165.396 19.7895C166.143 20.8713 166.515 22.4306 166.515 24.4672C166.515 26.1059 166.309 27.4423 165.894 28.4765C165.482 29.4948 164.836 30.2426 163.962 30.72C163.088 31.197 161.958 31.4357 160.571 31.4357C159.936 31.4357 159.253 31.3881 158.52 31.2927C157.787 31.197 156.993 31.054 156.133 30.863ZM158.116 29.6461C158.625 29.7414 159.076 29.8209 159.477 29.8844C159.874 29.9325 160.246 29.9563 160.597 29.9563C161.489 29.9563 162.211 29.7811 162.77 29.4312C163.341 29.081 163.763 28.5162 164.034 27.7366C164.32 26.9411 164.464 25.891 164.464 24.5863C164.464 23.5363 164.345 22.6693 164.107 21.985C163.883 21.2852 163.547 20.7601 163.103 20.4099C162.673 20.0441 162.149 19.861 161.528 19.861C161.164 19.861 160.795 19.9011 160.431 19.9805C160.08 20.0599 159.716 20.1874 159.333 20.3622C158.964 20.5214 158.56 20.7522 158.116 21.0544V29.6461Z" fill="#2F0549"/>
<path d="M166.421 28.1186C166.421 27.3549 166.58 26.7263 166.898 26.2334C167.216 25.7401 167.699 25.3501 168.353 25.0637C169.007 24.7615 169.808 24.5307 170.765 24.3719C171.719 24.1967 172.831 24.0534 174.105 23.9422V22.1522C174.105 21.4202 173.856 20.8634 173.365 20.4817C172.888 20.0838 172.174 19.8852 171.217 19.8852C170.899 19.8852 170.541 19.9011 170.144 19.9329C169.747 19.9646 169.332 20.0202 168.902 20.0997C168.472 20.1795 168.028 20.2907 167.566 20.4341L167.208 18.8109C167.891 18.6043 168.591 18.4451 169.306 18.3339C170.025 18.2223 170.7 18.1667 171.336 18.1667C172.387 18.1667 173.26 18.318 173.961 18.6202C174.676 18.9066 175.21 19.3439 175.561 19.9329C175.925 20.5214 176.11 21.2534 176.11 22.1283V28.3335C176.11 28.8586 176.182 29.2164 176.326 29.4074C176.481 29.5822 176.691 29.6699 176.944 29.6699C177.041 29.6699 177.142 29.662 177.254 29.6461C177.366 29.6299 177.485 29.5981 177.612 29.5504L177.828 31.0302C177.59 31.1573 177.334 31.253 177.063 31.3166C176.81 31.396 176.539 31.4357 176.254 31.4357C175.68 31.4357 175.228 31.2927 174.893 31.0064C174.557 30.7041 174.344 30.2506 174.25 29.6461C173.867 29.9484 173.437 30.2427 172.961 30.529C172.499 30.7995 171.989 31.0223 171.433 31.197C170.892 31.3563 170.296 31.4357 169.642 31.4357C169.148 31.4357 168.703 31.3642 168.306 31.2209C167.923 31.0779 167.591 30.871 167.302 30.6005C167.017 30.3142 166.793 29.9642 166.634 29.5504C166.493 29.137 166.421 28.6596 166.421 28.1186ZM168.447 27.9515C168.447 28.6358 168.617 29.1528 168.949 29.5027C169.299 29.8368 169.761 30.004 170.336 30.004C170.78 30.004 171.224 29.9325 171.672 29.7891C172.116 29.6461 172.545 29.4551 172.961 29.2164C173.39 28.9618 173.77 28.6755 174.105 28.3573V25.1352C173.246 25.215 172.466 25.3104 171.765 25.4216C171.083 25.5173 170.487 25.6682 169.974 25.8751C169.483 26.082 169.101 26.3525 168.83 26.6865C168.577 27.0209 168.447 27.4423 168.447 27.9515Z" fill="#2F0549"/>
<path d="M178.041 31.197V18.4054H179.858V19.527C180.381 19.2406 180.883 18.994 181.36 18.7871C181.855 18.5805 182.346 18.4292 182.84 18.3339C183.35 18.2223 183.88 18.1667 184.44 18.1667C185.217 18.1667 185.87 18.3021 186.394 18.5726C186.921 18.843 187.318 19.2406 187.589 19.7657C187.86 20.2748 187.993 20.9111 187.993 21.6748V31.197H186.015V22.2237C186.015 21.4599 185.816 20.8793 185.415 20.4817C185.036 20.0679 184.447 19.861 183.653 19.861C183.223 19.861 182.808 19.909 182.411 20.0044C182.014 20.0997 181.624 20.2271 181.241 20.386C180.858 20.5294 180.454 20.7125 180.024 20.9349V31.197H178.041Z" fill="#2F0549"/>
<path d="M199.354 31.4119C199.13 31.4119 198.902 31.3801 198.664 31.3166C198.426 31.2689 198.162 31.1494 197.873 30.9583C197.588 30.7677 197.223 30.4813 196.775 30.0993C196.349 29.7017 195.822 29.1767 195.201 28.5242L191.478 24.7535V31.197H189.546V13.5367H191.478V22.1045L195.656 26.3763C196.468 27.1877 197.118 27.8085 197.613 28.2378C198.104 28.6516 198.494 28.938 198.783 29.0969C199.083 29.2402 199.354 29.3117 199.592 29.3117H199.736C199.801 29.2958 199.863 29.2799 199.928 29.264L200 31.3404C199.903 31.3563 199.801 31.3722 199.689 31.3881C199.592 31.4039 199.48 31.4119 199.354 31.4119ZM193.843 25.4216L192.265 24.5625C192.774 24.1173 193.284 23.6637 193.793 23.2022C194.32 22.7249 194.804 22.2316 195.248 21.7225C195.71 21.2137 196.118 20.6724 196.468 20.0997C196.833 19.5111 197.126 18.8748 197.35 18.1905L199.332 18.4054C199.094 19.1214 198.765 19.8133 198.353 20.4817C197.938 21.1497 197.469 21.7784 196.945 22.367C196.436 22.9556 195.909 23.5045 195.371 24.0136C194.829 24.5069 194.32 24.9763 193.843 25.4216Z" fill="#2F0549"/>
<path fill-rule="evenodd" clip-rule="evenodd" d="M0 15.2338V0H17.3454C18.0745 0 18.6603 0.594961 18.6733 1.30188C18.6733 1.31056 18.6733 1.31925 18.6733 1.3275V6.05983H24.7531C25.4909 6.05983 26.0811 6.66912 26.0811 7.38733V19.9878C26.0811 20.706 25.4909 21.2936 24.7531 21.2936H7.4077V18.2181H7.42073V15.2364H7.4077V15.2338H0ZM15.692 8.75863H10.3673V12.5788H15.2364C15.4968 12.5788 15.692 12.3831 15.692 12.1435V8.75863ZM18.6733 8.75863V13.928C18.6733 14.6462 18.0875 15.2338 17.3454 15.2338H10.3673V18.6386H22.6397C22.9044 18.6386 23.0998 18.4429 23.0998 18.2034V9.19389C23.0998 8.95435 22.9044 8.75863 22.6397 8.75863H18.6733ZM7.4077 12.5788V6.05983H15.692V3.13406C15.692 2.89452 15.4968 2.6988 15.2364 2.6988H2.95959V12.5788H7.4077Z" fill="#820AD1"/>
<path fill-rule="evenodd" clip-rule="evenodd" d="M21.6546 2.60377V0H31.2278C36.648 0 41.0354 4.39125 41.0354 9.80839V31.2283C41.0354 36.645 36.648 41.0363 31.2278 41.0363H0V18.2181H2.60377V38.4325H31.2278C35.2073 38.4325 38.4316 35.2073 38.4316 31.2283V9.80839C38.4316 5.8294 35.2073 2.60377 31.2278 2.60377H21.6546Z" fill="#820AD1"/>
</svg>
